/* XPM */
static char * iceowl_xpm[] = {
"32 32 573 2",
"  	c None",
". 	c #DADCD9",
"+ 	c #F2F2F1",
"@ 	c #F3F3F2",
"# 	c #F3F4F2",
"$ 	c #DCDDDA",
"% 	c #DFE0DD",
"& 	c #DDDEDB",
"* 	c #E1E2DF",
"= 	c #F2F3F1",
"- 	c #DCDEDA",
"; 	c #D9DAD7",
"> 	c #EDEEEC",
", 	c #F1F1F0",
"' 	c #DEE1DC",
") 	c #FAFAFA",
"! 	c #FBFBFB",
"~ 	c #F9F9F9",
"{ 	c #E0E2DE",
"] 	c #E8E9E6",
"^ 	c #F6F7F6",
"/ 	c #E1E2DE",
"( 	c #E6E7E4",
"_ 	c #EAEAE9",
": 	c #F5F6F5",
"< 	c #E5E6E3",
"[ 	c #E1E3E0",
"} 	c #F6F6F5",
"| 	c #F4F5F3",
"1 	c #F0B8F3",
"2 	c #EFB7F2",
"3 	c #EBB3ED",
"4 	c #EEB6F1",
"5 	c #EDB6F0",
"6 	c #EBB4EE",
"7 	c #EFB3F3",
"8 	c #EFBBF3",
"9 	c #F9F5FC",
"0 	c #F2EAFA",
"a 	c #F0E7F9",
"b 	c #F5F2FB",
"c 	c #BDD5F4",
"d 	c #EFB5F3",
"e 	c #EFB9F3",
"f 	c #F8F2FB",
"g 	c #D3B4ED",
"h 	c #A25EDA",
"i 	c #A054D5",
"j 	c #B06AD8",
"k 	c #C891E3",
"l 	c #CB95E4",
"m 	c #B26ED9",
"n 	c #A155D4",
"o 	c #A05AD8",
"p 	c #CEABEB",
"q 	c #CEDEF6",
"r 	c #C4DAF6",
"s 	c #CEDCF6",
"t 	c #EEB3F3",
"u 	c #EDB7F2",
"v 	c #F6EFFA",
"w 	c #ECDEF6",
"x 	c #943ED0",
"y 	c #A23ECD",
"z 	c #C595DF",
"A 	c #D5B9E8",
"B 	c #D9C4EA",
"C 	c #DDCBEC",
"D 	c #DECCED",
"E 	c #DAC5EB",
"F 	c #D5BAE8",
"G 	c #CB9FE2",
"H 	c #A544CE",
"I 	c #9237CF",
"J 	c #CBD9F6",
"K 	c #F1F6FD",
"L 	c #C0D7F6",
"M 	c #B3CEF2",
"N 	c #ECEAF9",
"O 	c #EDB1F3",
"P 	c #EDB5F1",
"Q 	c #F5ECF9",
"R 	c #B785E1",
"S 	c #9029C9",
"T 	c #9D50C8",
"U 	c #B48BD6",
"V 	c #B89ADA",
"W 	c #BDA7DE",
"X 	c #C2B1E1",
"Y 	c #C6B6E3",
"Z 	c #C3B1E1",
"` 	c #BEA8DD",
" .	c #BA9DDA",
"..	c #B995D9",
"+.	c #9860CE",
"@.	c #E0E6F9",
"#.	c #FFFFFF",
"$.	c #B4D1F4",
"%.	c #DADEF6",
"&.	c #EDB0F2",
"*.	c #E6E6E5",
"=.	c #EAB1EF",
"-.	c #F3E9F9",
";.	c #9A48D4",
">.	c #9222C4",
",.	c #8B40BF",
"'.	c #9B6FCA",
").	c #9F81CF",
"!.	c #A98ED4",
"~.	c #AF96D7",
"{.	c #B69FDB",
"].	c #BAA3DC",
"^.	c #B7A0DB",
"/.	c #B097D8",
"(.	c #A78CD4",
"_.	c #A68BD3",
":.	c #A3A5E1",
"<.	c #F2F8FD",
"[.	c #C3CEF3",
"}.	c #CDD6F5",
"|.	c #EAACF0",
"1.	c #EBECEA",
"2.	c #EBB1F1",
"3.	c #F2E6F8",
"4.	c #B47DE2",
"5.	c #9322C5",
"6.	c #7620B4",
"7.	c #8452C0",
"8.	c #8B64C6",
"9.	c #B8A0DC",
"0.	c #9F7FD0",
"a.	c #AB8BD4",
"b.	c #B599D9",
"c.	c #BCA3DD",
"d.	c #C0A8DF",
"e.	c #BBA1DC",
"f.	c #B094D7",
"g.	c #A382D1",
"h.	c #9076CF",
"i.	c #D8E2F7",
"j.	c #F3F8FD",
"k.	c #DEEDFB",
"l.	c #E7EEFB",
"m.	c #929AE7",
"n.	c #EEE3F7",
"o.	c #EBACF2",
"p.	c #EAB0F1",
"q.	c #F0E4F7",
"r.	c #E4CFF4",
"s.	c #9328CA",
"t.	c #7517B3",
"u.	c #7032B5",
"v.	c #7645BD",
"w.	c #9167C8",
"x.	c #C2ACE0",
"y.	c #F7F3FB",
"z.	c #B392D8",
"A.	c #B292D7",
"B.	c #B18FD6",
"C.	c #AF8CD5",
"D.	c #AF8DD6",
"E.	c #B090D7",
"F.	c #AAB0E6",
"G.	c #E0EEFB",
"H.	c #EDF5FD",
"I.	c #F5F9FD",
"J.	c #884BD1",
"K.	c #DCC1F1",
"L.	c #E9ABF0",
"M.	c #ECEDEB",
"N.	c #E9AEF0",
"O.	c #EFE1F6",
"P.	c #973AD2",
"Q.	c #841BBB",
"R.	c #6314AE",
"S.	c #662BB6",
"T.	c #E9E0F4",
"U.	c #BFA4DF",
"V.	c #9C70CC",
"W.	c #C9B1E4",
"X.	c #9F73CD",
"Y.	c #A176CE",
"Z.	c #A47AD0",
"`.	c #9C6FCC",
" +	c #9481D4",
".+	c #E9EEFA",
"++	c #E7F2FC",
"@+	c #E8F2FC",
"#+	c #EFF6FD",
"$+	c #A7ACE6",
"%+	c #7E39C4",
"&+	c #9632CF",
"*+	c #EEDFF6",
"=+	c #E9A9EF",
"-+	c #E8ADEF",
";+	c #BF8FE4",
">+	c #9B24CA",
",+	c #7216B3",
"'+	c #5B17B0",
")+	c #6F31B9",
"!+	c #8A57C5",
"~+	c #7C3EBC",
"{+	c #864CC1",
"]+	c #9561C8",
"^+	c #AF86D5",
"/+	c #A071CD",
"(+	c #A375CE",
"_+	c #A070CD",
":+	c #9579D1",
"<+	c #DAE0F6",
"[+	c #D7E9FA",
"}+	c #F4F9FE",
"|+	c #BFC6EE",
"1+	c #9723C7",
"2+	c #B073DF",
"3+	c #E7A7EF",
"4+	c #E8ABEF",
"5+	c #A04CD7",
"6+	c #8C1EBF",
"7+	c #6A17B2",
"8+	c #6621B6",
"9+	c #6F2AB8",
"0+	c #7C3BBD",
"a+	c #7834BB",
"b+	c #8545BF",
"c+	c #9056C5",
"d+	c #AD81D4",
"e+	c #AF83D5",
"f+	c #A575CF",
"g+	c #A575D0",
"h+	c #9A76D1",
"i+	c #CBD1F1",
"j+	c #DFEEFB",
"k+	c #FAFCFE",
"l+	c #E5F1FC",
"m+	c #EBF2FC",
"n+	c #665ECD",
"o+	c #7022B5",
"p+	c #8C24BF",
"q+	c #9E40D6",
"r+	c #E7A5EE",
"s+	c #E7A8EF",
"t+	c #9A37D3",
"u+	c #811CBA",
"v+	c #6A1DB6",
"w+	c #6418B5",
"x+	c #8242C2",
"y+	c #742BB9",
"z+	c #752AB8",
"A+	c #833EBF",
"B+	c #9051C4",
"C+	c #A06BCD",
"D+	c #B7A7E3",
"E+	c #AFA9E5",
"F+	c #ACA3E2",
"G+	c #C0C6EE",
"H+	c #E3F0FB",
"I+	c #FEFEFF",
"J+	c #8476D6",
"K+	c #6417B4",
"L+	c #801CBA",
"M+	c #9830D0",
"N+	c #E6A4EF",
"O+	c #E5A6EE",
"P+	c #992BCF",
"Q+	c #7F1DBA",
"R+	c #671AB9",
"S+	c #6A1AB8",
"T+	c #8E50C7",
"U+	c #7527B9",
"V+	c #7C31BC",
"W+	c #863EC0",
"X+	c #914FC5",
"Y+	c #9E90DC",
"Z+	c #E9EEFB",
"`+	c #FCFDFE",
" @	c #F2F6FA",
".@	c #D5E8FA",
"+@	c #DAE1F7",
"@@	c #7F6ED4",
"#@	c #7A19B8",
"$@	c #9A29CC",
"%@	c #E09DEC",
"&@	c #E7E8E7",
"*@	c #D796EA",
"=@	c #9F28CD",
"-@	c #7D1AB9",
";@	c #6C1CBC",
">@	c #6F1CBA",
",@	c #9557CB",
"'@	c #7929BC",
")@	c #8134BF",
"!@	c #8C44C3",
"~@	c #9657C9",
"{@	c #C7D1F2",
"]@	c #F7F9FC",
"^@	c #9DA469",
"/@	c #C7C171",
"(@	c #FCFDFF",
"_@	c #D2DBF5",
":@	c #6C22BC",
"<@	c #7A1AB9",
"[@	c #9E26CB",
"}@	c #CB83E8",
"|@	c #EEEFED",
"1@	c #D28FE8",
"2@	c #A127CE",
"3@	c #801BBB",
"4@	c #711EBF",
"5@	c #7522BE",
"6@	c #9858CD",
"7@	c #7E2BBE",
"8@	c #8636C1",
"9@	c #8F45C5",
"0@	c #8E6AD1",
"a@	c #FBFCFE",
"b@	c #EDF3F9",
"c@	c #FAFCFD",
"d@	c #D9E3D8",
"e@	c #FEFCEA",
"f@	c #FCFEFF",
"g@	c #D4D8F4",
"h@	c #9994E1",
"i@	c #712EC2",
"j@	c #711EBE",
"k@	c #7D1BBB",
"l@	c #A026CC",
"m@	c #C479E5",
"n@	c #E3A0EC",
"o@	c #9E2BD0",
"p@	c #851DBE",
"q@	c #7620C2",
"r@	c #7820C0",
"s@	c #9D5CCF",
"t@	c #812BC0",
"u@	c #8835C2",
"v@	c #9044C6",
"w@	c #965DCE",
"x@	c #DEEAF8",
"y@	c #C4CAA3",
"z@	c #A9B488",
"A@	c #B9C1C8",
"B@	c #BFC6CB",
"C@	c #E4F0FB",
"D@	c #F6FBFE",
"E@	c #E2EBFB",
"F@	c #8F93E1",
"G@	c #954ECB",
"H@	c #831DBD",
"I@	c #9E28CD",
"J@	c #DB96EB",
"K@	c #A035D4",
"L@	c #8C1FC1",
"M@	c #7C20C2",
"N@	c #7C22C3",
"O@	c #A15ED2",
"P@	c #832AC2",
"Q@	c #8933C4",
"R@	c #9C54CC",
"S@	c #AD8FDE",
"T@	c #E8EEFB",
"U@	c #EAE7B9",
"V@	c #E1DDA4",
"W@	c #F9FAFC",
"X@	c #D1D7DE",
"Y@	c #ECF5FD",
"Z@	c #F0F7FD",
"`@	c #8865D3",
" #	c #9043CA",
".#	c #8B20C1",
"+#	c #9F30D2",
"@#	c #E29CEC",
"##	c #E19DEB",
"$#	c #A547DB",
"%#	c #9827C7",
"&#	c #831FC2",
"*#	c #8022C7",
"=#	c #A867D6",
"-#	c #8D38C8",
";#	c #9F55CF",
">#	c #A066D5",
",#	c #C8CBF1",
"'#	c #F7FBFE",
")#	c #ECF4FC",
"!#	c #E9F3FC",
"~#	c #EBF5FD",
"{#	c #A597E3",
"]#	c #8C35CA",
"^#	c #8125C7",
"/#	c #8524C3",
"(#	c #9321C5",
"_#	c #A33DD8",
":#	c #E09AEB",
"<#	c #E19CEB",
"[#	c #B06BE0",
"}#	c #A72FD0",
"|#	c #9532C8",
"1#	c #8525CB",
"2#	c #F0E5F8",
"3#	c #E7D3F3",
"4#	c #9949CF",
"5#	c #AEABE9",
"6#	c #E3F0FC",
"7#	c #F1F7FD",
"8#	c #F5FAFE",
"9#	c #E9F2FC",
"0#	c #B1AFEB",
"a#	c #8C31CB",
"b#	c #8A2ECD",
"c#	c #8A20C3",
"d#	c #A126CC",
"e#	c #AA57DC",
"f#	c #E098EB",
"g#	c #DF9BEA",
"h#	c #DCBEEC",
"i#	c #A633D7",
"j#	c #9B29C9",
"k#	c #E4CBF2",
"l#	c #AF6BDC",
"m#	c #BA7FE0",
"n#	c #A191E4",
"o#	c #E1EFFB",
"p#	c #F9FCFE",
"q#	c #F8FBFE",
"r#	c #EAF4FD",
"s#	c #E9F3FD",
"t#	c #A58EE4",
"u#	c #9E4CD5",
"v#	c #9131CB",
"w#	c #9522C6",
"x#	c #A630D6",
"y#	c #D8B9EB",
"z#	c #DF97EB",
"A#	c #DD97E8",
"B#	c #DDBFEC",
"C#	c #C290E5",
"D#	c #A52AD1",
"E#	c #A13DCE",
"F#	c #AD65DC",
"G#	c #C6D5F5",
"H#	c #F0F5FC",
"I#	c #DCECFA",
"J#	c #F5F9FE",
"K#	c #F1F8FD",
"L#	c #F0F7FE",
"M#	c #C7DBF6",
"N#	c #C7A9EC",
"O#	c #A451D7",
"P#	c #A13FCE",
"Q#	c #A329CF",
"R#	c #B97BE2",
"S#	c #DC93E8",
"T#	c #EBECE9",
"U#	c #DE97E9",
"V#	c #DBBCEB",
"W#	c #A84FDD",
"X#	c #A750D8",
"Y#	c #BCBAEE",
"Z#	c #EAF3FC",
"`#	c #EEF6FD",
" $	c #F6FAFE",
".$	c #E6EDFA",
"+$	c #A9BFF0",
"@$	c #BDB7EE",
"#$	c #CAD7F6",
"$$	c #C1C1F1",
"%$	c #BB7EE4",
"&$	c #B66EE0",
"*$	c #B15ED7",
"=$	c #AF45D4",
"-$	c #A644DB",
";$	c #DD94EA",
">$	c #EDEEEB",
",$	c #DD95E9",
"'$	c #DAB9EA",
")$	c #CEB6EA",
"!$	c #BFC0EF",
"~$	c #DBDCF8",
"{$	c #EBF4FD",
"]$	c #EBF4FC",
"^$	c #FEFFFF",
"/$	c #BEC7F2",
"($	c #DAB2EF",
"_$	c #D6ABEE",
":$	c #D2A3EC",
"<$	c #F0E0F9",
"[$	c #C588E5",
"}$	c #C079DE",
"|$	c #BB60DA",
"1$	c #AD36DC",
"2$	c #D4AFE9",
"3$	c #DD92E9",
"4$	c #DC94E9",
"5$	c #C4B9EC",
"6$	c #D3DFF8",
"7$	c #E6F1FB",
"8$	c #F8FCFE",
"9$	c #E4EBFB",
"0$	c #CDDAF7",
"a$	c #D4E1F8",
"b$	c #C1C5F2",
"c$	c #C5C4F3",
"d$	c #E5C7F5",
"e$	c #E1BFF3",
"f$	c #DCB3EF",
"g$	c #D4A3EA",
"h$	c #CF96E6",
"i$	c #C97BE3",
"j$	c #AC49DF",
"k$	c #D1AAE8",
"l$	c #D8B6EA",
"m$	c #DC90E9",
"n$	c #DC91E9",
"o$	c #B5B3EA",
"p$	c #99AEEA",
"q$	c #CEDEF7",
"r$	c #D8E6F9",
"s$	c #E8F0FB",
"t$	c #EEF5FD",
"u$	c #B1B1ED",
"v$	c #B3C0F0",
"w$	c #DFC7F2",
"x$	c #C3CAF3",
"y$	c #F0DEF8",
"z$	c #F1E0F8",
"A$	c #EED8F6",
"B$	c #E8CCF3",
"C$	c #E3BDF0",
"D$	c #D79EEA",
"E$	c #BF5EE1",
"F$	c #B671E2",
"G$	c #D7B3E9",
"H$	c #DB8FE8",
"I$	c #DB91E8",
"J$	c #D5B1E8",
"K$	c #C7ADE7",
"L$	c #C2CBF1",
"M$	c #A3B3EC",
"N$	c #A0B0EA",
"O$	c #A0B8ED",
"P$	c #B3B1EA",
"Q$	c #A357DF",
"R$	c #BE65E4",
"S$	c #CB80E8",
"T$	c #D99EEB",
"U$	c #E8C4F3",
"V$	c #E9C7F3",
"W$	c #DAA1EC",
"X$	c #CD81E8",
"Y$	c #BF67E5",
"Z$	c #AC4DDF",
"`$	c #CEA7E7",
" %	c #DA8EE8",
".%	c #DA8FE7",
"+%	c #D4AEE7",
"@%	c #A6A9E8",
"#%	c #D3ADE7",
"$%	c #D0ADE7",
"%%	c #C2ABE7",
"&%	c #C99EE5",
"*%	c #B471E1",
"=%	c #B26EE0",
"-%	c #C89AE5",
";%	c #D4ADE7",
">%	c #DA8CE8",
",%	c #E39EEB",
"'%	c #E1A2EA",
")%	c #DEA0E7",
"!%	c #E0A2E9",
"~%	c #DFA0E7",
"{%	c #E0A1E9",
"]%	c #E299EA",
"^%	c #F3F4F3",
"                                                                ",
"    . + @ @ @ @ # $ % @ @ @ @ @ $ & * @ @ @ = - $ ; > @ @ ,     ",
"    ' ) ! ! ! ! ~ { ] ! ! ! ! ^ / ( _ ! ! ! : * < [ } ! ! |     ",
"    > 1 1 1 1 1 2 3 1 1 1 1 1 4 3 1 1 1 1 1 5 6 1 1 1 1 7 |     ",
"    > 8 9 9 9 9 9 9 9 9 9 9 9 0 a 9 9 9 9 9 b c 9 9 9 9 d |     ",
"    > e f f f f f f f g h i j k l m n o p f q r s f f f t |     ",
"    > u v v v v v w x y z A B C D E F G H I J K L M N v O |     ",
"    > P Q Q Q Q R S T U V W X Y Y Z `  ...+.@.#.$.%.Q Q &.|     ",
"    *.=.-.-.-.;.>.,.'.).!.~.{.].].^./.(._.:.#.<.[.}.-.-.|.1.    ",
"    > 2.3.3.4.5.6.7.8.9.0.a.b.c.d.e.f.g.h.i.j.k.l.m.n.3.o.|     ",
"    > p.q.r.s.t.u.v.w.x.y.z.A.B.C.D.E.E.F.#.G.H.I.J.K.q.L.|     ",
"    M.N.O.P.Q.R.S.T.U.V.W.X.Y.Z.Z.Y.`. +.+++@+#+$+%+&+*+=+|     ",
"    M.-+;+>+,+'+)+!+~+{+]+^+/+(+(+_+:+<+j.[+}+#+|+6.1+2+3+|     ",
"    M.4+5+6+7+8+9+0+a+b+c+d+e+f+g+h+i+#.j+k+l+m+n+o+p+q+r+|     ",
"    M.s+t+u+v+w+x+y+z+A+B+C+D+E+F+G+#.H+#+I.I+#.J+K+L+M+N+|     ",
"    1.O+P+Q+R+S+T+U+V+W+X+Y+Z+`+ @#.#.#.#..@#.+@@@R+#@$@%@,     ",
"    &@*@=@-@;@>@,@'@)@!@~@{@#.]@^@/@#.#.I+(@#._@:@;@<@[@}@|@    ",
"    M.1@2@3@4@5@6@7@8@9@0@a@b@c@d@e@#.f@}+I+g@h@i@j@k@l@m@|     ",
"    M.n@o@p@q@r@s@t@u@v@w@x@y@z@A@B@#.C@D@E@F@G@r@q@H@I@J@|     ",
"    M.n@K@L@M@N@O@P@Q@R@S@T@U@V@W@X@#.++Y@Z@`@ #N@N@.#+#@#|     ",
"    M.##$#%#&#*#=#-#;#>#,##.#.#.#.#.'#)#!#~#{#]#^#/#(#_#:#|     ",
"    M.<#[#}#|#1#2#3#4#5##.<.#.#.}+6#C@7#8#9#0#a#b#c#d#e#f#|     ",
"    M.g#h#i#j#k#l#m#n#(@C@o##.p#q#Z@H.r#s#!#t#u#v#w#x#y#z#|     ",
"    ( A#B#C#D#E#F#G#H#)##+(@I##.q#J#++K#L#M#N#O#P#Q#R#B#S#T#    ",
"    M.U#V#V#W#X#Y#I+Z#G.`#Y@ $#..$+$@$#$$$%$&$*$=$-$V#V#;$|     ",
"    >$,$'$)$!$~$#.{$I#]$^$#.#.#./$($_$:$<$[$}$|$1$2$'$'$3$|     ",
"    > 4$5$6$I+#.C@7$8$@+9$0$a$b$c$d$e$f$g$h$i$j$k$l$l$l$m$|     ",
"    > n$o$p$q$r$s$t$8#u$v$w$x$y$z$A$B$C$D$E$F$G$G$G$G$G$H$|     ",
"    > I$J$K$L$M$N$O$P$Q$R$S$T$U$V$W$X$Y$Z$`$J$J$J$J$J$J$ %|     ",
"    > .%+%+%@%#%$%%%+%+%+%+%&%*%=%-%;%+%+%+%+%+%+%+%+%+%>%|     ",
"    |@,%'%'%'%'%'%)%'%'%'%'%'%!%~%'%'%'%'%'%{%~%'%'%'%'%]%^%    ",
"                                                                "};
